<svg xmlns="http://www.w3.org/2000/svg" xmlns:xlink="http://www.w3.org/1999/xlink" width="500" zoomAndPan="magnify" viewBox="0 0 375 374.999991" height="500" preserveAspectRatio="xMidYMid meet" version="1.0"><defs><g/><clipPath id="20127dfe5d"><path d="M 260.621094 79.527344 L 285.328125 79.527344 L 285.328125 203.449219 L 260.621094 203.449219 Z M 260.621094 79.527344 " clip-rule="nonzero"/></clipPath><clipPath id="a6a0596017"><path d="M 262.871094 79.527344 L 283.078125 79.527344 C 284.320312 79.527344 285.328125 80.53125 285.328125 81.777344 L 285.328125 201.1875 C 285.328125 202.429688 284.320312 203.4375 283.078125 203.4375 L 262.871094 203.4375 C 261.628906 203.4375 260.621094 202.429688 260.621094 201.1875 L 260.621094 81.777344 C 260.621094 80.53125 261.628906 79.527344 262.871094 79.527344 Z M 262.871094 79.527344 " clip-rule="nonzero"/></clipPath><clipPath id="3b745bc9bb"><path d="M 345.671875 79.527344 L 370.378906 79.527344 L 370.378906 203.449219 L 345.671875 203.449219 Z M 345.671875 79.527344 " clip-rule="nonzero"/></clipPath><clipPath id="f90b136109"><path d="M 347.921875 79.527344 L 368.128906 79.527344 C 369.371094 79.527344 370.378906 80.53125 370.378906 81.777344 L 370.378906 201.1875 C 370.378906 202.429688 369.371094 203.4375 368.128906 203.4375 L 347.921875 203.4375 C 346.679688 203.4375 345.671875 202.429688 345.671875 201.1875 L 345.671875 81.777344 C 345.671875 80.53125 346.679688 79.527344 347.921875 79.527344 Z M 347.921875 79.527344 " clip-rule="nonzero"/></clipPath><clipPath id="80898b7f4a"><path d="M 285 81 L 344 81 L 344 203 L 285 203 Z M 285 81 " clip-rule="nonzero"/></clipPath><clipPath id="c98447dde7"><path d="M 285.328125 87.039062 L 301.253906 81.222656 L 343.761719 197.675781 L 327.835938 203.488281 Z M 285.328125 87.039062 " clip-rule="nonzero"/></clipPath><clipPath id="3b4c67a2f4"><path d="M 287.441406 86.265625 L 299.140625 81.996094 C 300.308594 81.570312 301.597656 82.171875 302.023438 83.339844 L 342.972656 195.511719 C 343.398438 196.679688 342.796875 197.972656 341.628906 198.398438 L 329.929688 202.667969 C 328.761719 203.09375 327.472656 202.492188 327.046875 201.324219 L 286.101562 89.152344 C 285.675781 87.984375 286.273438 86.691406 287.441406 86.265625 Z M 287.441406 86.265625 " clip-rule="nonzero"/></clipPath><clipPath id="bfb1a4ff9f"><path d="M 264.464844 99.664062 L 281.480469 99.664062 L 281.480469 185 L 264.464844 185 Z M 264.464844 99.664062 " clip-rule="nonzero"/></clipPath><clipPath id="2c6bd1a27c"><path d="M 266.714844 99.664062 L 279.230469 99.664062 C 280.472656 99.664062 281.480469 100.671875 281.480469 101.914062 L 281.480469 182.75 C 281.480469 183.992188 280.472656 185 279.230469 185 L 266.714844 185 C 265.472656 185 264.464844 183.992188 264.464844 182.75 L 264.464844 101.914062 C 264.464844 100.671875 265.472656 99.664062 266.714844 99.664062 Z M 266.714844 99.664062 " clip-rule="nonzero"/></clipPath><clipPath id="309afcd3f4"><path d="M 349.515625 85.914062 L 366.542969 85.914062 L 366.542969 99.664062 L 349.515625 99.664062 Z M 349.515625 85.914062 " clip-rule="nonzero"/></clipPath><clipPath id="d66298f7d0"><path d="M 351.765625 85.914062 L 364.28125 85.914062 C 365.523438 85.914062 366.53125 86.921875 366.53125 88.164062 L 366.53125 97.414062 C 366.53125 98.65625 365.523438 99.664062 364.28125 99.664062 L 351.765625 99.664062 C 350.523438 99.664062 349.515625 98.65625 349.515625 97.414062 L 349.515625 88.164062 C 349.515625 86.921875 350.523438 85.914062 351.765625 85.914062 Z M 351.765625 85.914062 " clip-rule="nonzero"/></clipPath><clipPath id="a6f2b92a24"><path d="M 349.515625 102.355469 L 366.53125 102.355469 L 366.53125 149.082031 L 349.515625 149.082031 Z M 349.515625 102.355469 " clip-rule="nonzero"/></clipPath><clipPath id="d534b2b135"><path d="M 351.765625 102.355469 L 364.28125 102.355469 C 365.523438 102.355469 366.53125 103.363281 366.53125 104.605469 L 366.53125 146.828125 C 366.53125 148.070312 365.523438 149.078125 364.28125 149.078125 L 351.765625 149.078125 C 350.523438 149.078125 349.515625 148.070312 349.515625 146.828125 L 349.515625 104.605469 C 349.515625 103.363281 350.523438 102.355469 351.765625 102.355469 Z M 351.765625 102.355469 " clip-rule="nonzero"/></clipPath><clipPath id="c738013fa0"><path d="M 349.515625 153.023438 L 366.53125 153.023438 L 366.53125 193.433594 L 349.515625 193.433594 Z M 349.515625 153.023438 " clip-rule="nonzero"/></clipPath><clipPath id="6f45b19dfa"><path d="M 351.765625 153.023438 L 364.28125 153.023438 C 365.523438 153.023438 366.53125 154.03125 366.53125 155.273438 L 366.53125 191.136719 C 366.53125 192.378906 365.523438 193.386719 364.28125 193.386719 L 351.765625 193.386719 C 350.523438 193.386719 349.515625 192.378906 349.515625 191.136719 L 349.515625 155.273438 C 349.515625 154.03125 350.523438 153.023438 351.765625 153.023438 Z M 351.765625 153.023438 " clip-rule="nonzero"/></clipPath><clipPath id="17568008d7"><path d="M 288 82 L 342 82 L 342 203 L 288 203 Z M 288 82 " clip-rule="nonzero"/></clipPath><clipPath id="105820d459"><path d="M 287.402344 86.277344 L 299.179688 81.980469 L 341.675781 198.398438 L 329.894531 202.699219 Z M 287.402344 86.277344 " clip-rule="nonzero"/></clipPath><clipPath id="a8296efdcd"><path d="M 289.515625 85.507812 L 297.066406 82.75 C 298.234375 82.324219 299.527344 82.925781 299.953125 84.09375 L 340.898438 196.265625 C 341.324219 197.433594 340.722656 198.726562 339.554688 199.152344 L 332.003906 201.910156 C 330.835938 202.335938 329.542969 201.734375 329.117188 200.566406 L 288.171875 88.390625 C 287.746094 87.226562 288.347656 85.933594 289.515625 85.507812 Z M 289.515625 85.507812 " clip-rule="nonzero"/></clipPath></defs><g fill="#43727a" fill-opacity="1"><g transform="translate(-0.304683, 289.511247)"><g><path d="M 43.90625 -41.75 C 43.90625 -39.988281 43.65625 -38.445312 43.15625 -37.125 C 42.664062 -35.8125 41.988281 -34.660156 41.125 -33.671875 C 40.269531 -32.679688 39.25 -31.847656 38.0625 -31.171875 C 36.882812 -30.503906 35.609375 -29.941406 34.234375 -29.484375 L 34.234375 -29.171875 C 36.015625 -28.867188 37.640625 -28.347656 39.109375 -27.609375 C 40.585938 -26.878906 41.851562 -25.921875 42.90625 -24.734375 C 43.957031 -23.554688 44.773438 -22.160156 45.359375 -20.546875 C 45.941406 -18.929688 46.234375 -17.097656 46.234375 -15.046875 C 46.234375 -10.015625 44.582031 -6.25 41.28125 -3.75 C 37.976562 -1.25 32.953125 0 26.203125 0 L 2.96875 0 L 2.96875 -3.28125 L 3.96875 -3.28125 C 4.851562 -3.28125 5.679688 -3.34375 6.453125 -3.46875 C 7.234375 -3.59375 7.914062 -3.851562 8.5 -4.25 C 9.082031 -4.644531 9.535156 -5.207031 9.859375 -5.9375 C 10.191406 -6.675781 10.359375 -7.65625 10.359375 -8.875 L 10.359375 -47.109375 C 10.359375 -48.253906 10.1875 -49.175781 9.84375 -49.875 C 9.5 -50.570312 9.035156 -51.109375 8.453125 -51.484375 C 7.867188 -51.867188 7.1875 -52.117188 6.40625 -52.234375 C 5.632812 -52.347656 4.820312 -52.40625 3.96875 -52.40625 L 2.96875 -52.40625 L 2.96875 -55.6875 L 23.875 -55.6875 C 30.632812 -55.6875 35.660156 -54.5625 38.953125 -52.3125 C 42.253906 -50.0625 43.90625 -46.539062 43.90625 -41.75 Z M 18.25 -3.890625 L 25.828125 -3.890625 C 28.035156 -3.890625 29.898438 -4.09375 31.421875 -4.5 C 32.941406 -4.90625 34.179688 -5.554688 35.140625 -6.453125 C 36.109375 -7.359375 36.804688 -8.535156 37.234375 -9.984375 C 37.671875 -11.429688 37.890625 -13.191406 37.890625 -15.265625 C 37.890625 -17.296875 37.695312 -19.0625 37.3125 -20.5625 C 36.9375 -22.0625 36.285156 -23.304688 35.359375 -24.296875 C 34.429688 -25.285156 33.207031 -26.019531 31.6875 -26.5 C 30.164062 -26.988281 28.257812 -27.234375 25.96875 -27.234375 L 18.25 -27.234375 Z M 18.25 -31.109375 L 23.65625 -31.109375 C 25.9375 -31.109375 27.835938 -31.3125 29.359375 -31.71875 C 30.890625 -32.125 32.109375 -32.753906 33.015625 -33.609375 C 33.929688 -34.460938 34.585938 -35.5625 34.984375 -36.90625 C 35.378906 -38.25 35.578125 -39.863281 35.578125 -41.75 C 35.578125 -43.644531 35.359375 -45.234375 34.921875 -46.515625 C 34.492188 -47.804688 33.796875 -48.84375 32.828125 -49.625 C 31.867188 -50.414062 30.617188 -50.972656 29.078125 -51.296875 C 27.546875 -51.628906 25.675781 -51.796875 23.46875 -51.796875 L 18.25 -51.796875 Z M 18.25 -31.109375 "/></g></g><g transform="translate(50.692384, 289.511247)"><g><path d="M 40.71875 -20.984375 C 40.71875 -13.648438 39.160156 -8.191406 36.046875 -4.609375 C 32.941406 -1.023438 28.390625 0.765625 22.390625 0.765625 C 19.578125 0.765625 17.050781 0.320312 14.8125 -0.5625 C 12.582031 -1.457031 10.6875 -2.804688 9.125 -4.609375 C 7.5625 -6.410156 6.363281 -8.675781 5.53125 -11.40625 C 4.707031 -14.132812 4.296875 -17.328125 4.296875 -20.984375 C 4.296875 -28.273438 5.835938 -33.695312 8.921875 -37.25 C 12.015625 -40.800781 16.582031 -42.578125 22.625 -42.578125 C 25.4375 -42.578125 27.957031 -42.140625 30.1875 -41.265625 C 32.425781 -40.390625 34.328125 -39.054688 35.890625 -37.265625 C 37.453125 -35.472656 38.644531 -33.222656 39.46875 -30.515625 C 40.300781 -27.816406 40.71875 -24.640625 40.71875 -20.984375 Z M 11.84375 -20.984375 C 11.84375 -18.085938 12.03125 -15.535156 12.40625 -13.328125 C 12.789062 -11.117188 13.410156 -9.269531 14.265625 -7.78125 C 15.117188 -6.300781 16.222656 -5.179688 17.578125 -4.421875 C 18.929688 -3.660156 20.585938 -3.28125 22.546875 -3.28125 C 24.503906 -3.28125 26.15625 -3.660156 27.5 -4.421875 C 28.84375 -5.179688 29.929688 -6.300781 30.765625 -7.78125 C 31.609375 -9.269531 32.210938 -11.117188 32.578125 -13.328125 C 32.953125 -15.535156 33.140625 -18.085938 33.140625 -20.984375 C 33.140625 -23.878906 32.945312 -26.414062 32.5625 -28.59375 C 32.1875 -30.78125 31.578125 -32.601562 30.734375 -34.0625 C 29.898438 -35.53125 28.800781 -36.628906 27.4375 -37.359375 C 26.082031 -38.097656 24.425781 -38.46875 22.46875 -38.46875 C 20.507812 -38.46875 18.859375 -38.097656 17.515625 -37.359375 C 16.171875 -36.628906 15.078125 -35.53125 14.234375 -34.0625 C 13.398438 -32.601562 12.789062 -30.78125 12.40625 -28.59375 C 12.03125 -26.414062 11.84375 -23.878906 11.84375 -20.984375 Z M 11.84375 -20.984375 "/></g></g><g transform="translate(95.709959, 289.511247)"><g><path d="M 40.71875 -20.984375 C 40.71875 -13.648438 39.160156 -8.191406 36.046875 -4.609375 C 32.941406 -1.023438 28.390625 0.765625 22.390625 0.765625 C 19.578125 0.765625 17.050781 0.320312 14.8125 -0.5625 C 12.582031 -1.457031 10.6875 -2.804688 9.125 -4.609375 C 7.5625 -6.410156 6.363281 -8.675781 5.53125 -11.40625 C 4.707031 -14.132812 4.296875 -17.328125 4.296875 -20.984375 C 4.296875 -28.273438 5.835938 -33.695312 8.921875 -37.25 C 12.015625 -40.800781 16.582031 -42.578125 22.625 -42.578125 C 25.4375 -42.578125 27.957031 -42.140625 30.1875 -41.265625 C 32.425781 -40.390625 34.328125 -39.054688 35.890625 -37.265625 C 37.453125 -35.472656 38.644531 -33.222656 39.46875 -30.515625 C 40.300781 -27.816406 40.71875 -24.640625 40.71875 -20.984375 Z M 11.84375 -20.984375 C 11.84375 -18.085938 12.03125 -15.535156 12.40625 -13.328125 C 12.789062 -11.117188 13.410156 -9.269531 14.265625 -7.78125 C 15.117188 -6.300781 16.222656 -5.179688 17.578125 -4.421875 C 18.929688 -3.660156 20.585938 -3.28125 22.546875 -3.28125 C 24.503906 -3.28125 26.15625 -3.660156 27.5 -4.421875 C 28.84375 -5.179688 29.929688 -6.300781 30.765625 -7.78125 C 31.609375 -9.269531 32.210938 -11.117188 32.578125 -13.328125 C 32.953125 -15.535156 33.140625 -18.085938 33.140625 -20.984375 C 33.140625 -23.878906 32.945312 -26.414062 32.5625 -28.59375 C 32.1875 -30.78125 31.578125 -32.601562 30.734375 -34.0625 C 29.898438 -35.53125 28.800781 -36.628906 27.4375 -37.359375 C 26.082031 -38.097656 24.425781 -38.46875 22.46875 -38.46875 C 20.507812 -38.46875 18.859375 -38.097656 17.515625 -37.359375 C 16.171875 -36.628906 15.078125 -35.53125 14.234375 -34.0625 C 13.398438 -32.601562 12.789062 -30.78125 12.40625 -28.59375 C 12.03125 -26.414062 11.84375 -23.878906 11.84375 -20.984375 Z M 11.84375 -20.984375 "/></g></g><g transform="translate(140.727534, 289.511247)"><g><path d="M 26.4375 -25.09375 L 36.828125 -9.671875 C 38.171875 -7.585938 39.507812 -6 40.84375 -4.90625 C 42.175781 -3.820312 43.71875 -3.28125 45.46875 -3.28125 L 45.703125 -3.28125 L 45.703125 0 L 44.59375 0 C 42.332031 0 40.472656 -0.0664062 39.015625 -0.203125 C 37.554688 -0.347656 36.289062 -0.679688 35.21875 -1.203125 C 34.15625 -1.722656 33.179688 -2.484375 32.296875 -3.484375 C 31.410156 -4.484375 30.421875 -5.847656 29.328125 -7.578125 L 21.515625 -19.8125 L 15.765625 -15.546875 L 15.765625 -8.5 C 15.765625 -7.351562 15.9375 -6.429688 16.28125 -5.734375 C 16.625 -5.035156 17.085938 -4.507812 17.671875 -4.15625 C 18.253906 -3.800781 18.929688 -3.566406 19.703125 -3.453125 C 20.484375 -3.335938 21.304688 -3.28125 22.171875 -3.28125 L 22.390625 -3.28125 L 22.390625 0 L 1.40625 0 L 1.40625 -3.28125 L 2.015625 -3.28125 C 2.910156 -3.28125 3.742188 -3.34375 4.515625 -3.46875 C 5.285156 -3.59375 5.957031 -3.851562 6.53125 -4.25 C 7.101562 -4.644531 7.5625 -5.207031 7.90625 -5.9375 C 8.25 -6.675781 8.421875 -7.65625 8.421875 -8.875 L 8.421875 -50.6875 C 8.421875 -51.832031 8.25 -52.753906 7.90625 -53.453125 C 7.5625 -54.148438 7.097656 -54.6875 6.515625 -55.0625 C 5.929688 -55.445312 5.25 -55.695312 4.46875 -55.8125 C 3.695312 -55.925781 2.878906 -55.984375 2.015625 -55.984375 L 1.40625 -55.984375 L 1.40625 -59.265625 L 15.765625 -59.265625 L 15.765625 -29.171875 C 15.765625 -28.460938 15.75 -27.554688 15.71875 -26.453125 C 15.695312 -25.347656 15.660156 -24.257812 15.609375 -23.1875 C 15.566406 -21.96875 15.519531 -20.6875 15.46875 -19.34375 L 25.21875 -30.015625 C 26.050781 -30.953125 26.738281 -31.773438 27.28125 -32.484375 C 27.832031 -33.191406 28.269531 -33.8125 28.59375 -34.34375 C 28.925781 -34.882812 29.15625 -35.363281 29.28125 -35.78125 C 29.414062 -36.195312 29.484375 -36.597656 29.484375 -36.984375 C 29.484375 -37.640625 29.171875 -38.0625 28.546875 -38.25 C 27.921875 -38.445312 26.960938 -38.546875 25.671875 -38.546875 L 25.671875 -41.8125 L 42.890625 -41.8125 L 42.890625 -38.546875 C 41.085938 -38.546875 39.316406 -37.910156 37.578125 -36.640625 C 35.835938 -35.367188 33.953125 -33.578125 31.921875 -31.265625 Z M 26.4375 -25.09375 "/></g></g><g transform="translate(186.354485, 289.511247)"><g><path d="M 16.375 0.765625 C 14.414062 0.765625 12.644531 0.59375 11.0625 0.25 C 9.476562 -0.09375 8.125 -0.613281 7 -1.3125 C 5.882812 -2.007812 5.019531 -2.875 4.40625 -3.90625 C 3.800781 -4.9375 3.5 -6.132812 3.5 -7.5 C 3.5 -8.539062 3.671875 -9.410156 4.015625 -10.109375 C 4.359375 -10.804688 4.773438 -11.359375 5.265625 -11.765625 C 5.765625 -12.171875 6.300781 -12.457031 6.875 -12.625 C 7.445312 -12.789062 7.960938 -12.875 8.421875 -12.875 C 8.421875 -11.5 8.554688 -10.210938 8.828125 -9.015625 C 9.109375 -7.828125 9.578125 -6.78125 10.234375 -5.875 C 10.898438 -4.976562 11.769531 -4.269531 12.84375 -3.75 C 13.925781 -3.226562 15.253906 -2.96875 16.828125 -2.96875 C 18.222656 -2.96875 19.453125 -3.140625 20.515625 -3.484375 C 21.585938 -3.828125 22.484375 -4.304688 23.203125 -4.921875 C 23.929688 -5.546875 24.484375 -6.296875 24.859375 -7.171875 C 25.242188 -8.054688 25.4375 -9.019531 25.4375 -10.0625 C 25.4375 -11.019531 25.289062 -11.847656 25 -12.546875 C 24.707031 -13.242188 24.195312 -13.894531 23.46875 -14.5 C 22.75 -15.113281 21.765625 -15.738281 20.515625 -16.375 C 19.273438 -17.007812 17.71875 -17.734375 15.84375 -18.546875 C 13.832031 -19.429688 12.082031 -20.285156 10.59375 -21.109375 C 9.113281 -21.941406 7.890625 -22.835938 6.921875 -23.796875 C 5.960938 -24.765625 5.238281 -25.863281 4.75 -27.09375 C 4.269531 -28.332031 4.03125 -29.800781 4.03125 -31.5 C 4.03125 -33.269531 4.378906 -34.84375 5.078125 -36.21875 C 5.773438 -37.59375 6.769531 -38.742188 8.0625 -39.671875 C 9.363281 -40.597656 10.914062 -41.300781 12.71875 -41.78125 C 14.519531 -42.257812 16.523438 -42.5 18.734375 -42.5 C 20.585938 -42.5 22.222656 -42.304688 23.640625 -41.921875 C 25.066406 -41.546875 26.257812 -41.035156 27.21875 -40.390625 C 28.1875 -39.742188 28.910156 -38.984375 29.390625 -38.109375 C 29.878906 -37.234375 30.125 -36.3125 30.125 -35.34375 C 30.125 -33.925781 29.632812 -32.789062 28.65625 -31.9375 C 27.675781 -31.082031 26.285156 -30.65625 24.484375 -30.65625 C 24.484375 -33.269531 23.941406 -35.300781 22.859375 -36.75 C 21.785156 -38.195312 20.09375 -38.921875 17.78125 -38.921875 C 16.46875 -38.921875 15.335938 -38.769531 14.390625 -38.46875 C 13.453125 -38.164062 12.6875 -37.734375 12.09375 -37.171875 C 11.5 -36.609375 11.0625 -35.945312 10.78125 -35.1875 C 10.5 -34.425781 10.359375 -33.585938 10.359375 -32.671875 C 10.359375 -31.679688 10.535156 -30.820312 10.890625 -30.09375 C 11.242188 -29.375 11.804688 -28.707031 12.578125 -28.09375 C 13.359375 -27.488281 14.363281 -26.898438 15.59375 -26.328125 C 16.820312 -25.765625 18.300781 -25.125 20.03125 -24.40625 C 22.09375 -23.550781 23.859375 -22.703125 25.328125 -21.859375 C 26.796875 -21.023438 28.003906 -20.113281 28.953125 -19.125 C 29.910156 -18.132812 30.617188 -17.015625 31.078125 -15.765625 C 31.535156 -14.523438 31.765625 -13.09375 31.765625 -11.46875 C 31.765625 -9.4375 31.394531 -7.65625 30.65625 -6.125 C 29.925781 -4.601562 28.882812 -3.328125 27.53125 -2.296875 C 26.1875 -1.273438 24.566406 -0.507812 22.671875 0 C 20.785156 0.507812 18.6875 0.765625 16.375 0.765625 Z M 16.375 0.765625 "/></g></g><g transform="translate(221.545889, 289.511247)"><g><path d="M 20.6875 -3.359375 C 21.625 -3.359375 22.484375 -3.40625 23.265625 -3.5 C 24.054688 -3.601562 24.859375 -3.734375 25.671875 -3.890625 L 25.671875 -0.453125 C 25.335938 -0.304688 24.90625 -0.15625 24.375 0 C 23.84375 0.15625 23.265625 0.289062 22.640625 0.40625 C 22.015625 0.519531 21.359375 0.609375 20.671875 0.671875 C 19.992188 0.734375 19.347656 0.765625 18.734375 0.765625 C 16.753906 0.765625 15.050781 0.550781 13.625 0.125 C 12.207031 -0.289062 11.039062 -0.96875 10.125 -1.90625 C 9.21875 -2.84375 8.539062 -4.082031 8.09375 -5.625 C 7.644531 -7.175781 7.421875 -9.070312 7.421875 -11.3125 L 7.421875 -37.359375 L 1.484375 -37.359375 L 1.484375 -40.484375 C 2.421875 -40.484375 3.453125 -40.671875 4.578125 -41.046875 C 5.710938 -41.429688 6.710938 -42.070312 7.578125 -42.96875 C 8.460938 -43.925781 9.175781 -45.070312 9.71875 -46.40625 C 10.269531 -47.738281 10.75 -49.410156 11.15625 -51.421875 L 14.734375 -51.421875 L 14.734375 -41.8125 L 24.953125 -41.8125 L 24.953125 -37.359375 L 14.734375 -37.359375 L 14.734375 -11.078125 C 14.734375 -8.410156 15.273438 -6.457031 16.359375 -5.21875 C 17.441406 -3.976562 18.882812 -3.359375 20.6875 -3.359375 Z M 20.6875 -3.359375 "/></g></g><g transform="translate(249.005848, 289.511247)"><g><path d="M 40.71875 -20.984375 C 40.71875 -13.648438 39.160156 -8.191406 36.046875 -4.609375 C 32.941406 -1.023438 28.390625 0.765625 22.390625 0.765625 C 19.578125 0.765625 17.050781 0.320312 14.8125 -0.5625 C 12.582031 -1.457031 10.6875 -2.804688 9.125 -4.609375 C 7.5625 -6.410156 6.363281 -8.675781 5.53125 -11.40625 C 4.707031 -14.132812 4.296875 -17.328125 4.296875 -20.984375 C 4.296875 -28.273438 5.835938 -33.695312 8.921875 -37.25 C 12.015625 -40.800781 16.582031 -42.578125 22.625 -42.578125 C 25.4375 -42.578125 27.957031 -42.140625 30.1875 -41.265625 C 32.425781 -40.390625 34.328125 -39.054688 35.890625 -37.265625 C 37.453125 -35.472656 38.644531 -33.222656 39.46875 -30.515625 C 40.300781 -27.816406 40.71875 -24.640625 40.71875 -20.984375 Z M 11.84375 -20.984375 C 11.84375 -18.085938 12.03125 -15.535156 12.40625 -13.328125 C 12.789062 -11.117188 13.410156 -9.269531 14.265625 -7.78125 C 15.117188 -6.300781 16.222656 -5.179688 17.578125 -4.421875 C 18.929688 -3.660156 20.585938 -3.28125 22.546875 -3.28125 C 24.503906 -3.28125 26.15625 -3.660156 27.5 -4.421875 C 28.84375 -5.179688 29.929688 -6.300781 30.765625 -7.78125 C 31.609375 -9.269531 32.210938 -11.117188 32.578125 -13.328125 C 32.953125 -15.535156 33.140625 -18.085938 33.140625 -20.984375 C 33.140625 -23.878906 32.945312 -26.414062 32.5625 -28.59375 C 32.1875 -30.78125 31.578125 -32.601562 30.734375 -34.0625 C 29.898438 -35.53125 28.800781 -36.628906 27.4375 -37.359375 C 26.082031 -38.097656 24.425781 -38.46875 22.46875 -38.46875 C 20.507812 -38.46875 18.859375 -38.097656 17.515625 -37.359375 C 16.171875 -36.628906 15.078125 -35.53125 14.234375 -34.0625 C 13.398438 -32.601562 12.789062 -30.78125 12.40625 -28.59375 C 12.03125 -26.414062 11.84375 -23.878906 11.84375 -20.984375 Z M 11.84375 -20.984375 "/></g></g><g transform="translate(294.023423, 289.511247)"><g><path d="M 25.09375 0 L 2.59375 0 L 2.59375 -3.28125 L 2.8125 -3.28125 C 3.707031 -3.28125 4.539062 -3.34375 5.3125 -3.46875 C 6.082031 -3.59375 6.753906 -3.851562 7.328125 -4.25 C 7.898438 -4.644531 8.359375 -5.207031 8.703125 -5.9375 C 9.046875 -6.675781 9.21875 -7.65625 9.21875 -8.875 L 9.21875 -33.21875 C 9.21875 -34.351562 9.046875 -35.269531 8.703125 -35.96875 C 8.359375 -36.664062 7.894531 -37.203125 7.3125 -37.578125 C 6.726562 -37.960938 6.046875 -38.21875 5.265625 -38.34375 C 4.492188 -38.476562 3.675781 -38.546875 2.8125 -38.546875 L 2.59375 -38.546875 L 2.59375 -41.8125 L 14.59375 -41.8125 L 16.078125 -34.09375 L 16.453125 -34.09375 C 16.960938 -35.257812 17.484375 -36.351562 18.015625 -37.375 C 18.546875 -38.40625 19.195312 -39.304688 19.96875 -40.078125 C 20.75 -40.859375 21.707031 -41.46875 22.84375 -41.90625 C 23.988281 -42.351562 25.425781 -42.578125 27.15625 -42.578125 C 30 -42.578125 32.113281 -42.082031 33.5 -41.09375 C 34.882812 -40.101562 35.578125 -38.707031 35.578125 -36.90625 C 35.578125 -36.09375 35.441406 -35.34375 35.171875 -34.65625 C 34.898438 -33.96875 34.472656 -33.375 33.890625 -32.875 C 33.304688 -32.382812 32.554688 -32.003906 31.640625 -31.734375 C 30.734375 -31.472656 29.617188 -31.34375 28.296875 -31.34375 C 28.296875 -33.5 27.988281 -35.050781 27.375 -36 C 26.769531 -36.957031 25.707031 -37.4375 24.1875 -37.4375 C 23.21875 -37.4375 22.351562 -37.160156 21.59375 -36.609375 C 20.832031 -36.066406 20.164062 -35.34375 19.59375 -34.4375 C 19.019531 -33.539062 18.535156 -32.507812 18.140625 -31.34375 C 17.753906 -30.175781 17.4375 -28.976562 17.1875 -27.75 C 16.945312 -26.519531 16.773438 -25.296875 16.671875 -24.078125 C 16.578125 -22.859375 16.53125 -21.75 16.53125 -20.75 L 16.53125 -8.5 C 16.53125 -7.351562 16.703125 -6.429688 17.046875 -5.734375 C 17.390625 -5.035156 17.851562 -4.507812 18.4375 -4.15625 C 19.019531 -3.800781 19.695312 -3.566406 20.46875 -3.453125 C 21.25 -3.335938 22.066406 -3.28125 22.921875 -3.28125 L 25.09375 -3.28125 Z M 25.09375 0 "/></g></g><g transform="translate(330.776351, 289.511247)"><g><path d="M 21.4375 -38.390625 C 18.539062 -38.390625 16.3125 -37.210938 14.75 -34.859375 C 13.195312 -32.515625 12.28125 -29.082031 12 -24.5625 L 29.9375 -24.5625 C 29.9375 -26.625 29.78125 -28.503906 29.46875 -30.203125 C 29.164062 -31.898438 28.6875 -33.359375 28.03125 -34.578125 C 27.375 -35.796875 26.503906 -36.734375 25.421875 -37.390625 C 24.335938 -38.054688 23.007812 -38.390625 21.4375 -38.390625 Z M 22.390625 0.765625 C 19.578125 0.765625 17.046875 0.289062 14.796875 -0.65625 C 12.546875 -1.613281 10.644531 -3.003906 9.09375 -4.828125 C 7.550781 -6.660156 6.363281 -8.90625 5.53125 -11.5625 C 4.707031 -14.21875 4.296875 -17.234375 4.296875 -20.609375 C 4.296875 -27.890625 5.796875 -33.367188 8.796875 -37.046875 C 11.796875 -40.734375 16.0625 -42.578125 21.59375 -42.578125 C 24.101562 -42.578125 26.363281 -42.179688 28.375 -41.390625 C 30.382812 -40.609375 32.085938 -39.4375 33.484375 -37.875 C 34.878906 -36.3125 35.945312 -34.367188 36.6875 -32.046875 C 37.4375 -29.722656 37.8125 -27.023438 37.8125 -23.953125 L 37.8125 -20.375 L 11.84375 -20.375 C 11.894531 -17.53125 12.179688 -15.085938 12.703125 -13.046875 C 13.222656 -11.003906 13.972656 -9.320312 14.953125 -8 C 15.929688 -6.675781 17.128906 -5.703125 18.546875 -5.078125 C 19.972656 -4.460938 21.613281 -4.15625 23.46875 -4.15625 C 24.8125 -4.15625 26.0625 -4.304688 27.21875 -4.609375 C 28.375 -4.910156 29.421875 -5.316406 30.359375 -5.828125 C 31.296875 -6.335938 32.125 -6.914062 32.84375 -7.5625 C 33.570312 -8.207031 34.164062 -8.882812 34.625 -9.59375 C 34.976562 -9.445312 35.3125 -9.128906 35.625 -8.640625 C 35.945312 -8.160156 36.109375 -7.59375 36.109375 -6.9375 C 36.109375 -6.144531 35.828125 -5.296875 35.265625 -4.390625 C 34.710938 -3.492188 33.863281 -2.664062 32.71875 -1.90625 C 31.570312 -1.144531 30.140625 -0.507812 28.421875 0 C 26.710938 0.507812 24.703125 0.765625 22.390625 0.765625 Z M 22.390625 0.765625 "/></g></g></g><g fill="#4ecdc4" fill-opacity="1"><g transform="translate(-6.682195, 203.376338)"><g><path d="M 82.8125 0 L 41.140625 -54.734375 L 41.140625 0 L 10.953125 0 L 10.953125 -123.953125 L 41.140625 -123.953125 L 41.140625 -69.578125 L 82.46875 -123.953125 L 117.953125 -123.953125 L 69.921875 -63.21875 L 119.71875 0 Z M 82.8125 0 "/></g></g></g><g fill="#4ecdc4" fill-opacity="1"><g transform="translate(116.383464, 203.376338)"><g><path d="M 88.109375 -21.890625 L 41.84375 -21.890625 L 34.4375 0 L 2.828125 0 L 47.671875 -123.953125 L 82.640625 -123.953125 L 127.484375 0 L 95.53125 0 Z M 80.34375 -45.203125 L 64.984375 -90.578125 L 49.796875 -45.203125 Z M 80.34375 -45.203125 "/></g></g></g><g clip-path="url(#20127dfe5d)"><g clip-path="url(#a6a0596017)"><path fill="#4ecdc4" d="M 260.621094 79.527344 L 285.328125 79.527344 L 285.328125 203.449219 L 260.621094 203.449219 Z M 260.621094 79.527344 " fill-opacity="1" fill-rule="nonzero"/></g></g><g clip-path="url(#3b745bc9bb)"><g clip-path="url(#f90b136109)"><path fill="#4ecdc4" d="M 345.671875 79.527344 L 370.378906 79.527344 L 370.378906 203.449219 L 345.671875 203.449219 Z M 345.671875 79.527344 " fill-opacity="1" fill-rule="nonzero"/></g></g><g clip-path="url(#80898b7f4a)"><g clip-path="url(#c98447dde7)"><g clip-path="url(#3b4c67a2f4)"><path fill="#4ecdc4" d="M 285.328125 87.039062 L 301.253906 81.222656 L 343.738281 197.613281 L 327.8125 203.425781 Z M 285.328125 87.039062 " fill-opacity="1" fill-rule="nonzero"/></g></g></g><g clip-path="url(#bfb1a4ff9f)"><g clip-path="url(#2c6bd1a27c)"><path fill="#f7fff7" d="M 264.464844 99.664062 L 281.480469 99.664062 L 281.480469 185.007812 L 264.464844 185.007812 Z M 264.464844 99.664062 " fill-opacity="1" fill-rule="nonzero"/></g></g><g clip-path="url(#309afcd3f4)"><g clip-path="url(#d66298f7d0)"><path fill="#f7fff7" d="M 349.515625 85.914062 L 366.542969 85.914062 L 366.542969 99.664062 L 349.515625 99.664062 Z M 349.515625 85.914062 " fill-opacity="1" fill-rule="nonzero"/></g></g><g clip-path="url(#a6f2b92a24)"><g clip-path="url(#d534b2b135)"><path fill="#f7fff7" d="M 349.515625 102.355469 L 366.53125 102.355469 L 366.53125 149.082031 L 349.515625 149.082031 Z M 349.515625 102.355469 " fill-opacity="1" fill-rule="nonzero"/></g></g><g clip-path="url(#c738013fa0)"><g clip-path="url(#6f45b19dfa)"><path fill="#f7fff7" d="M 349.515625 153.023438 L 366.53125 153.023438 L 366.53125 193.367188 L 349.515625 193.367188 Z M 349.515625 153.023438 " fill-opacity="1" fill-rule="nonzero"/></g></g><g clip-path="url(#17568008d7)"><g clip-path="url(#105820d459)"><g clip-path="url(#a8296efdcd)"><path fill="#f7fff7" d="M 287.402344 86.277344 L 299.179688 81.980469 L 341.675781 198.398438 L 329.894531 202.699219 Z M 287.402344 86.277344 " fill-opacity="1" fill-rule="nonzero"/></g></g></g></svg>